<?xml version="1.0" encoding="utf-8"?>
<!-- Generator: Adobe Illustrator 18.0.0, SVG Export Plug-In . SVG Version: 6.00 Build 0)  -->
<!DOCTYPE svg PUBLIC "-//W3C//DTD SVG 1.1//EN" "http://www.w3.org/Graphics/SVG/1.1/DTD/svg11.dtd">
<svg version="1.1" id="Layer_1" xmlns="http://www.w3.org/2000/svg" xmlns:xlink="http://www.w3.org/1999/xlink" x="0px" y="0px"
	 viewBox="0 0 960 560" enable-background="new 0 0 960 560" xml:space="preserve">
<path fill="#59AA0F" d="M285.2,431.9h-46.3c0,0,0.5-127.9,0-138.3c-1.5-28.2-25.7-39.4-52.4-41.2c-19.4-1.3-63.7-1.8-84.3,0
	c-25.7,2.3-54.5,13.4-54.5,40.2c0,16.3-0.5,139.4-0.5,139.4H1.8V127.2H48c0,0,0,83.4,0,89.4c0,0.1,0.1,0.2,0.2,0.1
	c8.3-6.2,31-11.3,53.7-12.3c16.1-0.7,70.6-1,88.1,0c20,1.1,42,2,63.2,21.3c18.3,16.5,31.6,40.3,31.9,68.5
	C285.3,306.4,285.2,431.9,285.2,431.9z"/>
<path fill="#59AA0F" d="M621.5,251.4c0,0-121.7,0-123.9,0c0,2.1,0,180.5,0,180.5h-46c0,0,0-178.4,0-180.5c-2.1,0-124.7,0-124.7,0
	v-47h294.6V251.4z"/>
<path fill="#59AA0F" d="M957.4,251.2c0,0-178.3,0-200.1,0c-21.8,0-48.5,21.4-48.5,55.5c0,14.5-1.3,13.7,0.2,32
	c2.2,27.8,19.6,47.1,48.3,47c39.7,0,200.1,0,200.1,0v45.6c0,0-172.9,0.3-194.1,0c-25.8-0.4-46.2-2.9-68.2-19.9
	c-18.9-14.5-27.3-32.8-30.2-63.9c-1.2-12.1-1.5-33.4-0.7-49c1.6-29,4.9-50.6,22.4-68.6c18.5-19,43.9-25.5,76.6-25.5
	c32.7,0,194.1,0,194.1,0V251.2z"/>
</svg>
